<?xml version="1.0" standalone="no"?>
<!DOCTYPE svg PUBLIC "-//W3C//DTD SVG 1.1//EN" "http://www.w3.org/Graphics/SVG/1.1/DTD/svg11.dtd">
<svg width="100%" height="100%" viewBox="0 0 200 100" version="1.1" xmlns="http://www.w3.org/2000/svg" xmlns:xlink="http://www.w3.org/1999/xlink" xml:space="preserve" style="fill-rule:evenodd;clip-rule:evenodd;stroke-linejoin:round;stroke-miterlimit:1.41421;">
    <g>
        <g transform="matrix(2.01054,0,0,2.01054,-150.626,-16.591)">
            <text x="126.188px" y="27.339px" style="font-family:'HelveticaNeue-Medium';font-size:11.814px;fill:rgb(115,115,115);">riot</text>
        </g>
        <g transform="matrix(3.69176,0,0,3.69176,-366.176,-141.52)">
            <text x="126.584px" y="56.977px" style="font-family:'HelveticaNeue-Medium';font-size:12px;fill:rgb(255,0,68);">grid</text>
        </g>
    </g>
    <g transform="matrix(1,0,0,1,10.9401,13.2005)">
        <g>
            <g>
                <g>
                    <rect x="0.008" y="39.367" width="16.258" height="15.621" style="fill:rgb(255,0,68);fill-rule:nonzero;"/>
                    <rect x="58.332" y="20.137" width="16.66" height="15.621" style="fill:rgb(255,0,68);fill-rule:nonzero;"/>
                    <rect x="19.875" y="0" width="15.621" height="16.531" style="fill:rgb(255,0,68);fill-rule:nonzero;"/>
                    <rect x="0.008" y="20.137" width="16.258" height="15.621" style="fill:rgb(255,0,68);fill-rule:nonzero;"/>
                    <rect x="0.008" y="0" width="16.258" height="16.531" style="fill:rgb(255,0,68);fill-rule:nonzero;"/>
                    <rect x="58.332" y="39.367" width="16.66" height="15.621" style="fill:rgb(255,0,68);fill-rule:nonzero;"/>
                    <rect x="19.875" y="20.137" width="15.621" height="15.621" style="fill:rgb(255,0,68);fill-rule:nonzero;"/>
                    <rect x="0.008" y="58.594" width="16.258" height="16.406" style="fill:rgb(255,0,68);fill-rule:nonzero;"/>
                    <rect x="39.102" y="0" width="15.625" height="16.531" style="fill:rgb(255,0,68);fill-rule:nonzero;"/>
                    <rect x="58.332" y="58.594" width="16.66" height="16.406" style="fill:rgb(255,0,68);fill-rule:nonzero;"/>
                    <rect x="39.102" y="39.367" width="15.625" height="15.621" style="fill:rgb(255,0,68);fill-rule:nonzero;"/>
                    <rect x="39.102" y="20.137" width="15.625" height="15.621" style="fill:rgb(255,0,68);fill-rule:nonzero;"/>
                    <rect x="39.102" y="58.594" width="15.625" height="16.406" style="fill:rgb(255,0,68);fill-rule:nonzero;"/>
                    <rect x="19.875" y="39.367" width="15.621" height="15.621" style="fill:rgb(255,0,68);fill-rule:nonzero;"/>
                    <rect x="58.332" y="0" width="16.66" height="16.531" style="fill:rgb(255,0,68);fill-rule:nonzero;"/>
                    <rect x="19.875" y="58.594" width="15.621" height="16.406" style="fill:rgb(255,0,68);fill-rule:nonzero;"/>
                </g>
            </g>
        </g>
    </g>
</svg>
